. 
  
http://www.torrentday.com/        :     The Hottest Private Tracker On The Net!!!
 
http://www.torrentday.com          :     Once & For all ;)


               www . TorrentDay . Com 

(((((((((((((= Enjoy No RAR releases =))))))))))))))))))))


...................................NFO:....................................

.[img]http://img703.imageshack.us/img703/7600/soult.jpg[/img]

My Soul To Take 2010 BDRip XVID AC3 HQ Hive-CM8



[b]Thx Hive

CM8 Doing It Right The First Time :D

Source US Bluray

Video: 720x304 @bitrate 1800 2pass
Audio: DTS to AC3 5.1 @448
Sample: yes included
Subs: yes english in srt /subs[/b]
 
http://www.imdb.com/title/tt0872230/


General
Complete name                    :Format                           : AVI
Format/Info                      : Audio Video Interleave
File size                        : 1.69 GiB
Duration                         : 1h 47mn
Overall bit rate                 : 2 258 Kbps
Writing application              : Nandub v1.0rc2
Writing library                  : Nandub build 1853/release

Video
ID                               : 0
Format                           : MPEG-4 Visual
Format profile                   : Advanced Simple@L5
Format settings, BVOP            : Yes
Format settings, QPel            : Yes
Format settings, GMC             : No warppoints
Format settings, Matrix          : Default (H.263)
Muxing mode                      : Packed bitstream
Codec ID                         : XVID
Codec ID/Hint                    : XviD
Duration                         : 1h 47mn
Bit rate                         : 1 801 Kbps
Width                            : 720 pixels
Height                           : 304 pixels
Display aspect ratio             : 2.35:1
Frame rate                       : 23.976 fps
Color space                      : YUV
Chroma subsampling               : 4:2:0
Bit depth                        : 8 bits
Scan type                        : Progressive
Bits/(Pixel*Frame)               : 0.343
Stream size                      : 1.35 GiB (80%)
Writing library                  : XviD 1.2.1 (UTC 2008-12-04)

Audio
ID                               : 1
Format                           : AC-3
Format/Info                      : Audio Coding 3
Mode extension                   : CM (complete main)
Codec ID                         : 2000
Duration                         : 1h 47mn
Bit rate mode                    : Constant
Bit rate                         : 448 Kbps
Channel(s)                       : 6 channels
Channel positions                : Front: L C R, Side: L R, LFE
Sampling rate                    : 48.0 KHz
Bit depth                        : 16 bits
Stream size                      : 344 MiB (20%)
Alignment                        : Split accross interleaves
Interleave, duration             : 42 ms (1.00 video frame)
Interleave, preload duration     : 500 ms




Max Thieriot ... Bug
John Magaro ... Alex
Denzel Whitaker ... Jerome
Zena Grey ... Penelope
Nick Lashaway ... Brandon
Paulina Olszynski ... Brittany
Jeremy Chu ... Jay
Emily Meade ... Fang
Raul Esparza ... Abel
Jessica Hecht ... May
Frank Grillo ... Paterson
Danai Gurira ... Jeanne-Baptiste



In the sleepy town of Riverton, legend tells of a serial killer 
who swore he would return to murder the seven children born the night he died. 
Now, 16 years later, people are disappearing again. Has the psychopath been 
reincarnated as one of the seven teens, or did he survive the night he was left for dead? 



[img]http://img638.imageshack.us/img638/1834/23451494.png[/img]
[img]http://img62.imageshack.us/img62/5895/mymy.png[/img]
[img]http://img24.imageshack.us/img24/409/mymymmyymymymy.png[/img]
[img]http://img337.imageshack.us/img337/500/mymymy.png[/img]
[img]http://img510.imageshack.us/img510/6977/mymymymmyymymymy.png[/img]
[img]http://img821.imageshack.us/img821/6823/mymymymy.png[/img]
[img]http://img831.imageshack.us/img831/832/mymymymymy.png[/img]
[img]http://img262.imageshack.us/img262/5056/mymymymymymy.png[/img]




Greetz

iNK,LUSi,,MAGNET,CLASSiFiED,THC,LEGi0N,IMAGiNE,ViSiON,WBZ,FLAWL3SS,NOVA
Vik,Rapeseed,D2U,SAFC,goldadvance,MEMORY100,KaN1vE,Unevano,Pinnz,Wayne,Mr Hive
and all P2P groups 
Great Work Guys :D